<mxfile host="app.diagrams.net" modified="2023-11-22T18:19:02.077Z" agent="Mozilla/5.0 (Windows NT 10.0; Win64; x64) AppleWebKit/537.36 (KHTML, like Gecko) Chrome/119.0.0.0 Safari/537.36" etag="TfOiU-w2N3vFnHaVnaTR" version="22.1.3" type="github">
  <diagram name="Page-1" id="2C8_HGF7oX_tT-ZGbaq5">
    <mxGraphModel dx="1195" dy="658" grid="1" gridSize="10" guides="1" tooltips="1" connect="1" arrows="1" fold="1" page="1" pageScale="1" pageWidth="850" pageHeight="1100" math="0" shadow="0">
      <root>
        <mxCell id="0" />
        <mxCell id="1" parent="0" />
        <mxCell id="W6QJv-phxzr0F3JCB7R2-3" style="edgeStyle=orthogonalEdgeStyle;rounded=0;orthogonalLoop=1;jettySize=auto;html=1;exitX=1;exitY=0.5;exitDx=0;exitDy=0;entryX=-0.023;entryY=0.136;entryDx=0;entryDy=0;entryPerimeter=0;" edge="1" parent="1" source="W6QJv-phxzr0F3JCB7R2-2" target="W6QJv-phxzr0F3JCB7R2-16">
          <mxGeometry relative="1" as="geometry">
            <mxPoint x="270" y="400" as="targetPoint" />
          </mxGeometry>
        </mxCell>
        <mxCell id="W6QJv-phxzr0F3JCB7R2-4" style="edgeStyle=orthogonalEdgeStyle;rounded=0;orthogonalLoop=1;jettySize=auto;html=1;exitX=1;exitY=0.5;exitDx=0;exitDy=0;entryX=0.25;entryY=1;entryDx=0;entryDy=0;" edge="1" parent="1" source="W6QJv-phxzr0F3JCB7R2-2" target="W6QJv-phxzr0F3JCB7R2-5">
          <mxGeometry relative="1" as="geometry">
            <mxPoint x="210" y="310" as="targetPoint" />
            <Array as="points">
              <mxPoint x="200" y="400" />
              <mxPoint x="200" y="248" />
            </Array>
          </mxGeometry>
        </mxCell>
        <mxCell id="W6QJv-phxzr0F3JCB7R2-2" value="PC" style="rounded=0;whiteSpace=wrap;html=1;" vertex="1" parent="1">
          <mxGeometry x="130" y="360" width="50" height="80" as="geometry" />
        </mxCell>
        <mxCell id="W6QJv-phxzr0F3JCB7R2-5" value="+" style="shape=trapezoid;perimeter=trapezoidPerimeter;whiteSpace=wrap;html=1;fixedSize=1;rotation=90;" vertex="1" parent="1">
          <mxGeometry x="250" y="250" width="70" height="30" as="geometry" />
        </mxCell>
        <mxCell id="W6QJv-phxzr0F3JCB7R2-7" style="edgeStyle=orthogonalEdgeStyle;rounded=0;orthogonalLoop=1;jettySize=auto;html=1;entryX=0.75;entryY=1;entryDx=0;entryDy=0;" edge="1" parent="1" source="W6QJv-phxzr0F3JCB7R2-6" target="W6QJv-phxzr0F3JCB7R2-5">
          <mxGeometry relative="1" as="geometry" />
        </mxCell>
        <mxCell id="W6QJv-phxzr0F3JCB7R2-6" value="4" style="text;html=1;align=center;verticalAlign=middle;resizable=0;points=[];autosize=1;strokeColor=none;fillColor=none;" vertex="1" parent="1">
          <mxGeometry x="210" y="268" width="30" height="30" as="geometry" />
        </mxCell>
        <mxCell id="W6QJv-phxzr0F3JCB7R2-9" style="edgeStyle=orthogonalEdgeStyle;rounded=0;orthogonalLoop=1;jettySize=auto;html=1;entryX=0.5;entryY=0;entryDx=0;entryDy=0;" edge="1" parent="1" source="W6QJv-phxzr0F3JCB7R2-8" target="W6QJv-phxzr0F3JCB7R2-2">
          <mxGeometry relative="1" as="geometry" />
        </mxCell>
        <mxCell id="W6QJv-phxzr0F3JCB7R2-8" value="PCWrite" style="text;html=1;align=center;verticalAlign=middle;resizable=0;points=[];autosize=1;strokeColor=none;fillColor=none;" vertex="1" parent="1">
          <mxGeometry x="120" y="280" width="70" height="30" as="geometry" />
        </mxCell>
        <mxCell id="W6QJv-phxzr0F3JCB7R2-11" style="edgeStyle=orthogonalEdgeStyle;rounded=0;orthogonalLoop=1;jettySize=auto;html=1;entryX=0;entryY=0.5;entryDx=0;entryDy=0;" edge="1" parent="1" source="W6QJv-phxzr0F3JCB7R2-10" target="W6QJv-phxzr0F3JCB7R2-2">
          <mxGeometry relative="1" as="geometry" />
        </mxCell>
        <mxCell id="W6QJv-phxzr0F3JCB7R2-10" value="PCInput" style="text;html=1;align=center;verticalAlign=middle;resizable=0;points=[];autosize=1;strokeColor=none;fillColor=none;" vertex="1" parent="1">
          <mxGeometry x="15" y="385" width="70" height="30" as="geometry" />
        </mxCell>
        <mxCell id="W6QJv-phxzr0F3JCB7R2-13" style="edgeStyle=orthogonalEdgeStyle;rounded=0;orthogonalLoop=1;jettySize=auto;html=1;" edge="1" parent="1" source="W6QJv-phxzr0F3JCB7R2-12" target="W6QJv-phxzr0F3JCB7R2-5">
          <mxGeometry relative="1" as="geometry" />
        </mxCell>
        <mxCell id="W6QJv-phxzr0F3JCB7R2-12" value="0" style="text;html=1;align=center;verticalAlign=middle;resizable=0;points=[];autosize=1;strokeColor=none;fillColor=none;" vertex="1" parent="1">
          <mxGeometry x="270" y="170" width="30" height="30" as="geometry" />
        </mxCell>
        <mxCell id="W6QJv-phxzr0F3JCB7R2-14" value="Pc4Out" style="text;html=1;align=center;verticalAlign=middle;resizable=0;points=[];autosize=1;strokeColor=none;fillColor=none;" vertex="1" parent="1">
          <mxGeometry x="320" y="248" width="60" height="30" as="geometry" />
        </mxCell>
        <mxCell id="W6QJv-phxzr0F3JCB7R2-15" style="edgeStyle=orthogonalEdgeStyle;rounded=0;orthogonalLoop=1;jettySize=auto;html=1;exitX=0.5;exitY=0;exitDx=0;exitDy=0;entryX=-0.083;entryY=0.567;entryDx=0;entryDy=0;entryPerimeter=0;" edge="1" parent="1" source="W6QJv-phxzr0F3JCB7R2-5" target="W6QJv-phxzr0F3JCB7R2-14">
          <mxGeometry relative="1" as="geometry" />
        </mxCell>
        <mxCell id="W6QJv-phxzr0F3JCB7R2-22" style="edgeStyle=orthogonalEdgeStyle;rounded=0;orthogonalLoop=1;jettySize=auto;html=1;exitX=1;exitY=0.25;exitDx=0;exitDy=0;entryX=0;entryY=0.5;entryDx=0;entryDy=0;" edge="1" parent="1" source="W6QJv-phxzr0F3JCB7R2-16" target="W6QJv-phxzr0F3JCB7R2-21">
          <mxGeometry relative="1" as="geometry">
            <Array as="points">
              <mxPoint x="430" y="400" />
              <mxPoint x="440" y="400" />
              <mxPoint x="440" y="167" />
            </Array>
          </mxGeometry>
        </mxCell>
        <mxCell id="W6QJv-phxzr0F3JCB7R2-24" style="edgeStyle=orthogonalEdgeStyle;rounded=0;orthogonalLoop=1;jettySize=auto;html=1;exitX=1;exitY=0.5;exitDx=0;exitDy=0;" edge="1" parent="1" source="W6QJv-phxzr0F3JCB7R2-21">
          <mxGeometry relative="1" as="geometry">
            <mxPoint x="780" y="122" as="targetPoint" />
          </mxGeometry>
        </mxCell>
        <mxCell id="W6QJv-phxzr0F3JCB7R2-36" style="edgeStyle=orthogonalEdgeStyle;rounded=0;orthogonalLoop=1;jettySize=auto;html=1;exitX=1;exitY=0.5;exitDx=0;exitDy=0;" edge="1" parent="1" source="W6QJv-phxzr0F3JCB7R2-21" target="W6QJv-phxzr0F3JCB7R2-26">
          <mxGeometry relative="1" as="geometry" />
        </mxCell>
        <mxCell id="W6QJv-phxzr0F3JCB7R2-21" value="ControlUnit" style="rounded=0;whiteSpace=wrap;html=1;" vertex="1" parent="1">
          <mxGeometry x="620" y="122" width="120" height="90" as="geometry" />
        </mxCell>
        <mxCell id="W6QJv-phxzr0F3JCB7R2-23" value="instruction[20], OPCode" style="text;html=1;align=center;verticalAlign=middle;resizable=0;points=[];autosize=1;strokeColor=none;fillColor=none;" vertex="1" parent="1">
          <mxGeometry x="380" y="138" width="150" height="30" as="geometry" />
        </mxCell>
        <mxCell id="W6QJv-phxzr0F3JCB7R2-25" value="Branch" style="text;html=1;align=center;verticalAlign=middle;resizable=0;points=[];autosize=1;strokeColor=none;fillColor=none;labelBorderColor=none;" vertex="1" parent="1">
          <mxGeometry x="780" y="100" width="60" height="30" as="geometry" />
        </mxCell>
        <mxCell id="W6QJv-phxzr0F3JCB7R2-26" value="MemRead" style="text;html=1;align=center;verticalAlign=middle;resizable=0;points=[];autosize=1;strokeColor=none;fillColor=none;" vertex="1" parent="1">
          <mxGeometry x="780" y="130" width="80" height="30" as="geometry" />
        </mxCell>
        <mxCell id="W6QJv-phxzr0F3JCB7R2-27" value="MemtoReg" style="text;html=1;align=center;verticalAlign=middle;resizable=0;points=[];autosize=1;strokeColor=none;fillColor=none;" vertex="1" parent="1">
          <mxGeometry x="784" y="150" width="80" height="30" as="geometry" />
        </mxCell>
        <mxCell id="W6QJv-phxzr0F3JCB7R2-28" value="ALUOp" style="text;html=1;align=center;verticalAlign=middle;resizable=0;points=[];autosize=1;strokeColor=none;fillColor=none;" vertex="1" parent="1">
          <mxGeometry x="784" y="182" width="60" height="30" as="geometry" />
        </mxCell>
        <mxCell id="W6QJv-phxzr0F3JCB7R2-29" value="MemWrite" style="text;html=1;align=center;verticalAlign=middle;resizable=0;points=[];autosize=1;strokeColor=none;fillColor=none;" vertex="1" parent="1">
          <mxGeometry x="779" y="202" width="80" height="30" as="geometry" />
        </mxCell>
        <mxCell id="W6QJv-phxzr0F3JCB7R2-30" value="ALUSrc" style="text;html=1;align=center;verticalAlign=middle;resizable=0;points=[];autosize=1;strokeColor=none;fillColor=none;" vertex="1" parent="1">
          <mxGeometry x="780" y="222" width="60" height="30" as="geometry" />
        </mxCell>
        <mxCell id="W6QJv-phxzr0F3JCB7R2-32" value="RegWrite" style="text;html=1;align=center;verticalAlign=middle;resizable=0;points=[];autosize=1;strokeColor=none;fillColor=none;" vertex="1" parent="1">
          <mxGeometry x="780" y="240" width="70" height="30" as="geometry" />
        </mxCell>
        <mxCell id="W6QJv-phxzr0F3JCB7R2-33" value="PCWrite" style="text;html=1;align=center;verticalAlign=middle;resizable=0;points=[];autosize=1;strokeColor=none;fillColor=none;" vertex="1" parent="1">
          <mxGeometry x="780" y="262" width="70" height="30" as="geometry" />
        </mxCell>
        <mxCell id="W6QJv-phxzr0F3JCB7R2-34" value="rfWriteSelect" style="text;html=1;align=center;verticalAlign=middle;resizable=0;points=[];autosize=1;strokeColor=none;fillColor=none;" vertex="1" parent="1">
          <mxGeometry x="780" y="282" width="90" height="30" as="geometry" />
        </mxCell>
        <mxCell id="W6QJv-phxzr0F3JCB7R2-37" style="edgeStyle=orthogonalEdgeStyle;rounded=0;orthogonalLoop=1;jettySize=auto;html=1;exitX=1;exitY=0.5;exitDx=0;exitDy=0;entryX=-0.05;entryY=0.567;entryDx=0;entryDy=0;entryPerimeter=0;" edge="1" parent="1" source="W6QJv-phxzr0F3JCB7R2-21" target="W6QJv-phxzr0F3JCB7R2-27">
          <mxGeometry relative="1" as="geometry" />
        </mxCell>
        <mxCell id="W6QJv-phxzr0F3JCB7R2-38" style="edgeStyle=orthogonalEdgeStyle;rounded=0;orthogonalLoop=1;jettySize=auto;html=1;exitX=1;exitY=0.5;exitDx=0;exitDy=0;entryX=-0.067;entryY=0.467;entryDx=0;entryDy=0;entryPerimeter=0;" edge="1" parent="1" source="W6QJv-phxzr0F3JCB7R2-21" target="W6QJv-phxzr0F3JCB7R2-28">
          <mxGeometry relative="1" as="geometry">
            <Array as="points">
              <mxPoint x="760" y="167" />
              <mxPoint x="760" y="196" />
            </Array>
          </mxGeometry>
        </mxCell>
        <mxCell id="W6QJv-phxzr0F3JCB7R2-39" style="edgeStyle=orthogonalEdgeStyle;rounded=0;orthogonalLoop=1;jettySize=auto;html=1;exitX=1;exitY=0.5;exitDx=0;exitDy=0;entryX=0.013;entryY=0.467;entryDx=0;entryDy=0;entryPerimeter=0;" edge="1" parent="1" source="W6QJv-phxzr0F3JCB7R2-21" target="W6QJv-phxzr0F3JCB7R2-29">
          <mxGeometry relative="1" as="geometry" />
        </mxCell>
        <mxCell id="W6QJv-phxzr0F3JCB7R2-40" style="edgeStyle=orthogonalEdgeStyle;rounded=0;orthogonalLoop=1;jettySize=auto;html=1;exitX=1;exitY=0.5;exitDx=0;exitDy=0;entryX=0;entryY=0.367;entryDx=0;entryDy=0;entryPerimeter=0;" edge="1" parent="1" source="W6QJv-phxzr0F3JCB7R2-21" target="W6QJv-phxzr0F3JCB7R2-30">
          <mxGeometry relative="1" as="geometry" />
        </mxCell>
        <mxCell id="W6QJv-phxzr0F3JCB7R2-41" style="edgeStyle=orthogonalEdgeStyle;rounded=0;orthogonalLoop=1;jettySize=auto;html=1;exitX=1;exitY=0.5;exitDx=0;exitDy=0;entryX=-0.014;entryY=0.5;entryDx=0;entryDy=0;entryPerimeter=0;" edge="1" parent="1" source="W6QJv-phxzr0F3JCB7R2-21" target="W6QJv-phxzr0F3JCB7R2-32">
          <mxGeometry relative="1" as="geometry">
            <Array as="points">
              <mxPoint x="760" y="167" />
              <mxPoint x="760" y="255" />
            </Array>
          </mxGeometry>
        </mxCell>
        <mxCell id="W6QJv-phxzr0F3JCB7R2-42" style="edgeStyle=orthogonalEdgeStyle;rounded=0;orthogonalLoop=1;jettySize=auto;html=1;exitX=1;exitY=0.5;exitDx=0;exitDy=0;entryX=-0.014;entryY=0.533;entryDx=0;entryDy=0;entryPerimeter=0;" edge="1" parent="1" source="W6QJv-phxzr0F3JCB7R2-21" target="W6QJv-phxzr0F3JCB7R2-33">
          <mxGeometry relative="1" as="geometry">
            <Array as="points">
              <mxPoint x="760" y="167" />
              <mxPoint x="760" y="278" />
            </Array>
          </mxGeometry>
        </mxCell>
        <mxCell id="W6QJv-phxzr0F3JCB7R2-43" style="edgeStyle=orthogonalEdgeStyle;rounded=0;orthogonalLoop=1;jettySize=auto;html=1;exitX=1;exitY=0.5;exitDx=0;exitDy=0;entryX=0;entryY=0.6;entryDx=0;entryDy=0;entryPerimeter=0;" edge="1" parent="1" source="W6QJv-phxzr0F3JCB7R2-21" target="W6QJv-phxzr0F3JCB7R2-34">
          <mxGeometry relative="1" as="geometry">
            <Array as="points">
              <mxPoint x="760" y="167" />
              <mxPoint x="760" y="300" />
            </Array>
          </mxGeometry>
        </mxCell>
        <mxCell id="W6QJv-phxzr0F3JCB7R2-50" style="edgeStyle=orthogonalEdgeStyle;rounded=0;orthogonalLoop=1;jettySize=auto;html=1;entryX=-0.1;entryY=0.5;entryDx=0;entryDy=0;entryPerimeter=0;" edge="1" parent="1" source="W6QJv-phxzr0F3JCB7R2-47" target="W6QJv-phxzr0F3JCB7R2-51">
          <mxGeometry relative="1" as="geometry">
            <mxPoint x="480" y="400" as="targetPoint" />
          </mxGeometry>
        </mxCell>
        <mxCell id="W6QJv-phxzr0F3JCB7R2-60" style="edgeStyle=orthogonalEdgeStyle;rounded=0;orthogonalLoop=1;jettySize=auto;html=1;entryX=0.5;entryY=0;entryDx=0;entryDy=0;" edge="1" parent="1" source="W6QJv-phxzr0F3JCB7R2-57" target="W6QJv-phxzr0F3JCB7R2-44">
          <mxGeometry relative="1" as="geometry" />
        </mxCell>
        <mxCell id="W6QJv-phxzr0F3JCB7R2-57" value="RegWrite" style="text;html=1;align=center;verticalAlign=middle;resizable=0;points=[];autosize=1;strokeColor=none;fillColor=none;" vertex="1" parent="1">
          <mxGeometry x="605" y="328" width="70" height="30" as="geometry" />
        </mxCell>
        <mxCell id="W6QJv-phxzr0F3JCB7R2-61" style="edgeStyle=orthogonalEdgeStyle;rounded=0;orthogonalLoop=1;jettySize=auto;html=1;entryX=-0.05;entryY=0.467;entryDx=0;entryDy=0;entryPerimeter=0;" edge="1" parent="1" source="W6QJv-phxzr0F3JCB7R2-47" target="W6QJv-phxzr0F3JCB7R2-52">
          <mxGeometry relative="1" as="geometry" />
        </mxCell>
        <mxCell id="W6QJv-phxzr0F3JCB7R2-62" style="edgeStyle=orthogonalEdgeStyle;rounded=0;orthogonalLoop=1;jettySize=auto;html=1;entryX=0;entryY=0.5;entryDx=0;entryDy=0;entryPerimeter=0;" edge="1" parent="1" source="W6QJv-phxzr0F3JCB7R2-47" target="W6QJv-phxzr0F3JCB7R2-54">
          <mxGeometry relative="1" as="geometry" />
        </mxCell>
        <mxCell id="W6QJv-phxzr0F3JCB7R2-63" style="edgeStyle=orthogonalEdgeStyle;rounded=0;orthogonalLoop=1;jettySize=auto;html=1;entryX=0;entryY=0.433;entryDx=0;entryDy=0;entryPerimeter=0;" edge="1" parent="1" source="W6QJv-phxzr0F3JCB7R2-47" target="W6QJv-phxzr0F3JCB7R2-53">
          <mxGeometry relative="1" as="geometry" />
        </mxCell>
        <mxCell id="W6QJv-phxzr0F3JCB7R2-64" value="" style="group" vertex="1" connectable="0" parent="1">
          <mxGeometry x="580" y="385" width="120" height="145" as="geometry" />
        </mxCell>
        <mxCell id="W6QJv-phxzr0F3JCB7R2-44" value="RegFile" style="rounded=0;whiteSpace=wrap;html=1;" vertex="1" parent="W6QJv-phxzr0F3JCB7R2-64">
          <mxGeometry width="120" height="145" as="geometry" />
        </mxCell>
        <mxCell id="W6QJv-phxzr0F3JCB7R2-51" value="&lt;font style=&quot;font-size: 10px;&quot;&gt;RS1&lt;/font&gt;" style="text;html=1;align=left;verticalAlign=middle;resizable=0;points=[];autosize=1;strokeColor=none;fillColor=none;" vertex="1" parent="W6QJv-phxzr0F3JCB7R2-64">
          <mxGeometry x="3" width="40" height="30" as="geometry" />
        </mxCell>
        <mxCell id="W6QJv-phxzr0F3JCB7R2-52" value="&lt;font style=&quot;font-size: 10px;&quot;&gt;RS2&lt;br&gt;&lt;/font&gt;" style="text;html=1;align=left;verticalAlign=middle;resizable=0;points=[];autosize=1;strokeColor=none;fillColor=none;" vertex="1" parent="W6QJv-phxzr0F3JCB7R2-64">
          <mxGeometry x="1" y="25" width="40" height="30" as="geometry" />
        </mxCell>
        <mxCell id="W6QJv-phxzr0F3JCB7R2-53" value="&lt;font size=&quot;1&quot;&gt;WriteData&lt;/font&gt;" style="text;html=1;align=left;verticalAlign=middle;resizable=0;points=[];autosize=1;strokeColor=none;fillColor=none;" vertex="1" parent="W6QJv-phxzr0F3JCB7R2-64">
          <mxGeometry y="115" width="70" height="30" as="geometry" />
        </mxCell>
        <mxCell id="W6QJv-phxzr0F3JCB7R2-54" value="&lt;font style=&quot;font-size: 10px;&quot;&gt;WriteReg&lt;/font&gt;" style="text;html=1;align=left;verticalAlign=middle;resizable=0;points=[];autosize=1;strokeColor=none;fillColor=none;" vertex="1" parent="W6QJv-phxzr0F3JCB7R2-64">
          <mxGeometry y="85" width="70" height="30" as="geometry" />
        </mxCell>
        <mxCell id="W6QJv-phxzr0F3JCB7R2-55" value="&lt;font style=&quot;font-size: 8px;&quot;&gt;Read_Data_1&lt;/font&gt;" style="text;html=1;align=right;verticalAlign=middle;resizable=0;points=[];autosize=1;strokeColor=none;fillColor=none;" vertex="1" parent="W6QJv-phxzr0F3JCB7R2-64">
          <mxGeometry x="50" width="70" height="30" as="geometry" />
        </mxCell>
        <mxCell id="W6QJv-phxzr0F3JCB7R2-56" value="&lt;font style=&quot;font-size: 8px;&quot;&gt;Read_Data_2&lt;/font&gt;" style="text;html=1;align=right;verticalAlign=middle;resizable=0;points=[];autosize=1;strokeColor=none;fillColor=none;" vertex="1" parent="W6QJv-phxzr0F3JCB7R2-64">
          <mxGeometry x="50" y="25" width="70" height="30" as="geometry" />
        </mxCell>
        <mxCell id="W6QJv-phxzr0F3JCB7R2-65" value="" style="group" vertex="1" connectable="0" parent="1">
          <mxGeometry x="300" y="385" width="130" height="110" as="geometry" />
        </mxCell>
        <mxCell id="W6QJv-phxzr0F3JCB7R2-16" value="InstructionMemory" style="rounded=0;whiteSpace=wrap;html=1;" vertex="1" parent="W6QJv-phxzr0F3JCB7R2-65">
          <mxGeometry width="130" height="110" as="geometry" />
        </mxCell>
        <mxCell id="W6QJv-phxzr0F3JCB7R2-46" value="PC" style="text;html=1;align=left;verticalAlign=middle;resizable=0;points=[];autosize=1;strokeColor=none;fillColor=none;" vertex="1" parent="W6QJv-phxzr0F3JCB7R2-65">
          <mxGeometry width="40" height="30" as="geometry" />
        </mxCell>
        <mxCell id="W6QJv-phxzr0F3JCB7R2-47" value="Instruction" style="text;html=1;align=right;verticalAlign=middle;resizable=0;points=[];autosize=1;strokeColor=none;fillColor=none;" vertex="1" parent="W6QJv-phxzr0F3JCB7R2-65">
          <mxGeometry x="50" width="80" height="30" as="geometry" />
        </mxCell>
      </root>
    </mxGraphModel>
  </diagram>
</mxfile>
